<?xml version="1.0" encoding="utf-8"?>
<!-- Generator: Adobe Illustrator 23.0.6, SVG Export Plug-In . SVG Version: 6.00 Build 0)  -->
<svg version="1.1" id="Layer_1" xmlns="http://www.w3.org/2000/svg" xmlns:xlink="http://www.w3.org/1999/xlink" x="0px" y="0px"
	 viewBox="0 0 100 100" style="enable-background:new 0 0 100 100;" xml:space="preserve">
<style type="text/css">
	.st0{fill:#010101;}
	.st1{fill:#FFFFFF;stroke:#010101;stroke-width:0.5;stroke-miterlimit:10;}
	.st2{fill:#010101;stroke:#010101;stroke-width:0.5;stroke-miterlimit:10;}
</style>
<g>
	<path class="st0" d="M34.76,37.95h3.16V62.1h-3.16V37.95z"/>
	<path class="st0" d="M54.99,41.4h-3.3v-3.45h9.76v3.45h-3.3V62.1h-3.16L54.99,41.4L54.99,41.4z"/>
	<path class="st0" d="M64.09,37.95h4.27l3.27,24.16h-3.16l-0.57-4.8v0.07h-3.59l-0.57,4.73h-2.93L64.09,37.95z M67.53,54.1
		l-1.41-11.94h-0.06L64.69,54.1H67.53z"/>
	<path class="st0" d="M74.07,60.88c-0.8-1.05-1.2-2.55-1.2-4.5v-12.7c0-1.95,0.4-3.46,1.2-4.5c0.8-1.05,1.97-1.57,3.5-1.57
		c1.53,0,2.7,0.52,3.5,1.57c0.8,1.05,1.2,2.55,1.2,4.5v2.07H79.3v-2.31c0-1.59-0.54-2.38-1.64-2.38c-1.09,0-1.64,0.79-1.64,2.38
		v13.22c0,1.56,0.54,2.35,1.64,2.35c1.09,0,1.64-0.78,1.64-2.35v-4.73h-1.58v-3.45h4.56v7.9c0,1.95-0.4,3.46-1.2,4.5
		c-0.8,1.05-1.97,1.57-3.5,1.57C76.04,62.45,74.88,61.92,74.07,60.88z"/>
	<path class="st0" d="M84.32,37.95h8.61v3.45h-5.45v6.38h4.33v3.45h-4.33v7.42h5.45v3.45h-8.61V37.95z"/>
	<g>
		<g>
			<path class="st1" d="M17.15,43.13c-0.49-0.37-1-0.66-1.55-0.88c-0.54-0.22-1.12-0.32-1.73-0.32c-0.52,0-1,0.16-1.45,0.49
				s-0.85,0.72-1.18,1.2c-0.33,0.48-0.6,1.01-0.8,1.6c-0.2,0.59-0.3,1.13-0.3,1.62v12.59H8.28V40.3h1.86v2.59
				c0.39-0.71,0.91-1.36,1.55-1.94c0.64-0.59,1.33-0.88,2.09-0.88c0.94,0,1.71,0.11,2.32,0.32c0.61,0.22,1.29,0.6,2.04,1.16
				L17.15,43.13z"/>
			<path class="st2" d="M10.23,59.51H8.2V40.22h2.04v2.36c0.37-0.61,0.84-1.17,1.4-1.69c0.65-0.6,1.37-0.9,2.15-0.9
				c0.95,0,1.73,0.11,2.35,0.33c0.61,0.22,1.31,0.61,2.07,1.17l0.07,0.05l-1.09,1.72L17.1,43.2c-0.48-0.36-0.99-0.66-1.52-0.87
				c-0.53-0.21-1.1-0.32-1.7-0.32c-0.49,0-0.97,0.16-1.41,0.47c-0.44,0.32-0.83,0.71-1.16,1.18c-0.33,0.47-0.59,1-0.78,1.57
				c-0.19,0.58-0.29,1.11-0.29,1.59L10.23,59.51L10.23,59.51z M8.37,59.34h1.69v-12.5c0-0.5,0.1-1.05,0.3-1.65
				c0.2-0.59,0.47-1.13,0.81-1.62c0.34-0.48,0.74-0.9,1.2-1.23c0.47-0.33,0.97-0.5,1.51-0.5c0.61,0,1.2,0.11,1.76,0.33
				c0.52,0.21,1.02,0.49,1.49,0.83l0.91-1.43c-0.72-0.52-1.38-0.89-1.96-1.1c-0.59-0.21-1.36-0.32-2.29-0.32
				c-0.73,0-1.42,0.29-2.03,0.86c-0.63,0.58-1.14,1.22-1.53,1.92l-0.16,0.29v-2.84H8.37L8.37,59.34L8.37,59.34z"/>
		</g>
		<g>
			<path class="st1" d="M20.06,49.47c0,2.59,0.68,4.64,2.05,6.16c1.42,1.54,3.38,2.31,5.86,2.31c1.27,0,2.43-0.22,3.46-0.65
				c1.3-0.55,2.47-1.68,3.5-3.38l1.68,0.79c-1.18,2.28-3,3.83-5.46,4.63c-0.94,0.31-2,0.46-3.18,0.46c-2.82,0-5.14-0.94-6.96-2.82
				c-1.85-1.88-2.77-4.24-2.77-7.08c0-2.87,0.91-5.23,2.73-7.08c1.85-1.88,4.18-2.82,7-2.82c2.79,0,5.09,0.88,6.91,2.64
				c1.85,1.76,2.77,4.04,2.77,6.85L20.06,49.47L20.06,49.47z M32.88,43.41c-1.43-1.05-3.06-1.57-4.91-1.57
				c-3.88,0-6.43,1.94-7.64,5.83h15.23C35.25,45.91,34.36,44.49,32.88,43.41z"/>
			<path class="st2" d="M27.97,59.88c-2.83,0-5.19-0.96-7.02-2.85c-1.86-1.89-2.8-4.29-2.8-7.14c0-2.88,0.93-5.28,2.75-7.14
				c1.86-1.89,4.23-2.85,7.06-2.85c2.8,0,5.14,0.9,6.97,2.66c1.86,1.77,2.8,4.09,2.8,6.91v0.09h-17.6c0.02,2.52,0.7,4.54,2.02,6.01
				c1.4,1.52,3.35,2.28,5.8,2.28c1.26,0,2.41-0.22,3.42-0.64c1.28-0.54,2.44-1.67,3.46-3.34l0.04-0.07l1.83,0.86l-0.04,0.08
				c-1.19,2.29-3.04,3.86-5.51,4.67C30.23,59.72,29.15,59.88,27.97,59.88z M27.97,40.07c-2.78,0-5.12,0.94-6.94,2.8
				c-1.79,1.83-2.7,4.19-2.7,7.02c0,2.8,0.92,5.16,2.75,7.02c1.79,1.86,4.11,2.8,6.89,2.8c1.16,0,2.22-0.15,3.15-0.46
				c2.39-0.78,4.2-2.3,5.36-4.51l-1.53-0.71c-1.02,1.67-2.2,2.79-3.5,3.35c-1.04,0.43-2.21,0.66-3.49,0.66
				c-2.5,0-4.49-0.79-5.93-2.34c-1.37-1.52-2.07-3.61-2.07-6.21v-0.09h17.59c-0.02-2.73-0.94-4.98-2.75-6.7
				C33.03,40.95,30.72,40.07,27.97,40.07z M35.66,47.75H20.21l0.04-0.11c1.22-3.91,3.81-5.89,7.72-5.89c1.86,0,3.53,0.54,4.96,1.59
				l0,0c1.5,1.09,2.41,2.54,2.72,4.31L35.66,47.75z M20.45,47.58h15.01c-0.31-1.68-1.2-3.06-2.63-4.1l0,0
				c-1.41-1.03-3.04-1.56-4.86-1.56C24.19,41.92,21.66,43.82,20.45,47.58z"/>
		</g>
	</g>
	<path class="st0" d="M22.97,37.95h3.19l2.07,18.74h0.06l2.07-18.74h2.9L30.19,62.1H26L22.97,37.95z"/>
	<path class="st0" d="M40.27,37.95h3.96l3.07,14.46h0.06V37.95h2.81V62.1h-3.24l-3.79-17.63h-0.06V62.1h-2.81V37.95z"/>
</g>
</svg>
